<mxfile host="app.diagrams.net" modified="2020-10-10T16:51:41.032Z" agent="5.0 (Windows NT 6.1; WOW64) AppleWebKit/537.36 (KHTML, like Gecko) Chrome/85.0.4183.121 Safari/537.36 OPR/71.0.3770.228" etag="XHzO9mMI67OE60EHuHft" version="13.7.9" type="github">
  <diagram id="aBniZHlXKUAYQsy9Y0dU" name="Page-1">
    <mxGraphModel dx="1142" dy="1903" grid="1" gridSize="10" guides="1" tooltips="1" connect="1" arrows="1" fold="1" page="1" pageScale="1" pageWidth="827" pageHeight="1169" math="0" shadow="0">
      <root>
        <mxCell id="0" />
        <mxCell id="1" parent="0" />
        <mxCell id="r5Q07ow4xROfVBouFqMC-16" value="options" style="rounded=0;orthogonalLoop=1;jettySize=auto;html=1;exitX=1;exitY=1;exitDx=0;exitDy=0;entryX=0;entryY=0;entryDx=0;entryDy=0;" parent="1" source="r5Q07ow4xROfVBouFqMC-1" target="r5Q07ow4xROfVBouFqMC-17" edge="1">
          <mxGeometry relative="1" as="geometry">
            <mxPoint x="420" y="540" as="targetPoint" />
          </mxGeometry>
        </mxCell>
        <mxCell id="r5Q07ow4xROfVBouFqMC-1" value="" style="rounded=0;whiteSpace=wrap;html=1;" parent="1" vertex="1">
          <mxGeometry x="40" y="40" width="280" height="440" as="geometry" />
        </mxCell>
        <mxCell id="r5Q07ow4xROfVBouFqMC-2" value="start" style="rounded=1;whiteSpace=wrap;html=1;" parent="1" vertex="1">
          <mxGeometry x="65" y="290" width="230" height="40" as="geometry" />
        </mxCell>
        <mxCell id="r5Q07ow4xROfVBouFqMC-3" value="options" style="rounded=1;whiteSpace=wrap;html=1;" parent="1" vertex="1">
          <mxGeometry x="65" y="350" width="230" height="40" as="geometry" />
        </mxCell>
        <mxCell id="r5Q07ow4xROfVBouFqMC-4" value="exit" style="rounded=1;whiteSpace=wrap;html=1;" parent="1" vertex="1">
          <mxGeometry x="65" y="410" width="230" height="40" as="geometry" />
        </mxCell>
        <mxCell id="r5Q07ow4xROfVBouFqMC-7" value="&lt;h1&gt;LOGO&lt;/h1&gt;&lt;div&gt;some text&lt;/div&gt;" style="text;html=1;strokeColor=none;fillColor=none;spacing=5;spacingTop=-20;whiteSpace=wrap;overflow=hidden;rounded=0;align=left;" parent="1" vertex="1">
          <mxGeometry x="65" y="60" width="225" height="150" as="geometry" />
        </mxCell>
        <mxCell id="r5Q07ow4xROfVBouFqMC-8" value="" style="rounded=0;whiteSpace=wrap;html=1;fillColor=#f5f5f5;strokeColor=#666666;fontColor=#333333;" parent="1" vertex="1">
          <mxGeometry x="40" y="520" width="280" height="440" as="geometry" />
        </mxCell>
        <mxCell id="r5Q07ow4xROfVBouFqMC-9" value="start" style="rounded=1;whiteSpace=wrap;html=1;fillColor=#f5f5f5;strokeColor=#666666;fontColor=#333333;" parent="1" vertex="1">
          <mxGeometry x="65" y="770" width="230" height="40" as="geometry" />
        </mxCell>
        <mxCell id="r5Q07ow4xROfVBouFqMC-10" value="options" style="rounded=1;whiteSpace=wrap;html=1;fillColor=#f5f5f5;strokeColor=#666666;fontColor=#333333;" parent="1" vertex="1">
          <mxGeometry x="65" y="830" width="230" height="40" as="geometry" />
        </mxCell>
        <mxCell id="r5Q07ow4xROfVBouFqMC-11" value="exit" style="rounded=1;whiteSpace=wrap;html=1;fillColor=#f5f5f5;strokeColor=#666666;fontColor=#333333;" parent="1" vertex="1">
          <mxGeometry x="65" y="890" width="230" height="40" as="geometry" />
        </mxCell>
        <mxCell id="r5Q07ow4xROfVBouFqMC-12" value="&lt;h1&gt;LOGO&lt;/h1&gt;&lt;div&gt;some text&lt;/div&gt;" style="text;html=1;strokeColor=none;fillColor=none;spacing=5;spacingTop=-20;whiteSpace=wrap;overflow=hidden;rounded=0;align=left;" parent="1" vertex="1">
          <mxGeometry x="65" y="540" width="225" height="150" as="geometry" />
        </mxCell>
        <mxCell id="r5Q07ow4xROfVBouFqMC-13" value="on exit" style="endArrow=classic;html=1;exitX=0.5;exitY=1;exitDx=0;exitDy=0;entryX=0.5;entryY=0;entryDx=0;entryDy=0;" parent="1" source="r5Q07ow4xROfVBouFqMC-1" target="r5Q07ow4xROfVBouFqMC-8" edge="1">
          <mxGeometry width="50" height="50" relative="1" as="geometry">
            <mxPoint x="180" y="540" as="sourcePoint" />
            <mxPoint x="230" y="490" as="targetPoint" />
          </mxGeometry>
        </mxCell>
        <mxCell id="r5Q07ow4xROfVBouFqMC-14" value="on start" style="endArrow=classic;html=1;exitX=1;exitY=0.5;exitDx=0;exitDy=0;entryX=0;entryY=0.5;entryDx=0;entryDy=0;" parent="1" source="r5Q07ow4xROfVBouFqMC-1" target="fP1cCntkiwPbsJFRUNOq-16" edge="1">
          <mxGeometry width="50" height="50" relative="1" as="geometry">
            <mxPoint x="330" y="310" as="sourcePoint" />
            <mxPoint x="400" y="260" as="targetPoint" />
          </mxGeometry>
        </mxCell>
        <mxCell id="r5Q07ow4xROfVBouFqMC-17" value="" style="rounded=0;whiteSpace=wrap;html=1;" parent="1" vertex="1">
          <mxGeometry x="440" y="520" width="280" height="440" as="geometry" />
        </mxCell>
        <mxCell id="r5Q07ow4xROfVBouFqMC-18" value="" style="rounded=0;whiteSpace=wrap;html=1;align=left;" parent="1" vertex="1">
          <mxGeometry x="75" y="680" width="210" height="130" as="geometry" />
        </mxCell>
        <mxCell id="r5Q07ow4xROfVBouFqMC-19" value="Are you sure?" style="text;html=1;strokeColor=none;fillColor=none;align=center;verticalAlign=middle;whiteSpace=wrap;rounded=0;" parent="1" vertex="1">
          <mxGeometry x="105" y="720" width="150" height="20" as="geometry" />
        </mxCell>
        <mxCell id="r5Q07ow4xROfVBouFqMC-20" value="No" style="rounded=1;whiteSpace=wrap;html=1;align=center;fillColor=#FFFFFF;" parent="1" vertex="1">
          <mxGeometry x="205" y="760" width="60" height="30" as="geometry" />
        </mxCell>
        <mxCell id="r5Q07ow4xROfVBouFqMC-21" value="Yes" style="rounded=1;whiteSpace=wrap;html=1;align=center;fillColor=#FFFFFF;" parent="1" vertex="1">
          <mxGeometry x="95" y="760" width="60" height="30" as="geometry" />
        </mxCell>
        <mxCell id="fP1cCntkiwPbsJFRUNOq-6" value="" style="rounded=0;whiteSpace=wrap;html=1;fillColor=#f5f5f5;strokeColor=#666666;fontColor=#333333;" vertex="1" parent="1">
          <mxGeometry x="760" y="40" width="280" height="440" as="geometry" />
        </mxCell>
        <mxCell id="fP1cCntkiwPbsJFRUNOq-7" value="start" style="rounded=1;whiteSpace=wrap;html=1;fillColor=#f5f5f5;strokeColor=#666666;fontColor=#333333;" vertex="1" parent="1">
          <mxGeometry x="785" y="285" width="230" height="40" as="geometry" />
        </mxCell>
        <mxCell id="fP1cCntkiwPbsJFRUNOq-8" value="options" style="rounded=1;whiteSpace=wrap;html=1;fillColor=#f5f5f5;strokeColor=#666666;fontColor=#333333;" vertex="1" parent="1">
          <mxGeometry x="785" y="350" width="230" height="40" as="geometry" />
        </mxCell>
        <mxCell id="fP1cCntkiwPbsJFRUNOq-9" value="exit" style="rounded=1;whiteSpace=wrap;html=1;fillColor=#f5f5f5;strokeColor=#666666;fontColor=#333333;" vertex="1" parent="1">
          <mxGeometry x="785" y="410" width="230" height="40" as="geometry" />
        </mxCell>
        <mxCell id="fP1cCntkiwPbsJFRUNOq-10" value="&lt;h1&gt;LOGO&lt;/h1&gt;&lt;div&gt;some text&lt;/div&gt;" style="text;html=1;spacing=5;spacingTop=-20;whiteSpace=wrap;overflow=hidden;rounded=0;align=left;" vertex="1" parent="1">
          <mxGeometry x="785" y="60" width="225" height="150" as="geometry" />
        </mxCell>
        <mxCell id="fP1cCntkiwPbsJFRUNOq-11" value="" style="rounded=0;whiteSpace=wrap;html=1;" vertex="1" parent="1">
          <mxGeometry x="795" y="185" width="205" height="150" as="geometry" />
        </mxCell>
        <mxCell id="fP1cCntkiwPbsJFRUNOq-12" value="Name" style="rounded=0;whiteSpace=wrap;html=1;" vertex="1" parent="1">
          <mxGeometry x="810" y="235" width="180" height="30" as="geometry" />
        </mxCell>
        <mxCell id="fP1cCntkiwPbsJFRUNOq-13" value="New character" style="text;html=1;strokeColor=none;fillColor=none;align=center;verticalAlign=middle;whiteSpace=wrap;rounded=0;" vertex="1" parent="1">
          <mxGeometry x="810" y="205" width="180" height="20" as="geometry" />
        </mxCell>
        <mxCell id="fP1cCntkiwPbsJFRUNOq-14" value="Create" style="rounded=1;whiteSpace=wrap;html=1;" vertex="1" parent="1">
          <mxGeometry x="838" y="285" width="124" height="40" as="geometry" />
        </mxCell>
        <mxCell id="fP1cCntkiwPbsJFRUNOq-17" value="no =&amp;gt; new Character&amp;nbsp;" style="edgeStyle=orthogonalEdgeStyle;rounded=0;orthogonalLoop=1;jettySize=auto;html=1;exitX=1;exitY=0.5;exitDx=0;exitDy=0;entryX=0;entryY=0.5;entryDx=0;entryDy=0;" edge="1" parent="1" source="fP1cCntkiwPbsJFRUNOq-16" target="fP1cCntkiwPbsJFRUNOq-6">
          <mxGeometry relative="1" as="geometry" />
        </mxCell>
        <mxCell id="fP1cCntkiwPbsJFRUNOq-18" style="edgeStyle=orthogonalEdgeStyle;rounded=0;orthogonalLoop=1;jettySize=auto;html=1;exitX=0.5;exitY=0;exitDx=0;exitDy=0;entryX=0.5;entryY=1;entryDx=0;entryDy=0;" edge="1" parent="1" source="fP1cCntkiwPbsJFRUNOq-16" target="fP1cCntkiwPbsJFRUNOq-19">
          <mxGeometry relative="1" as="geometry">
            <mxPoint x="490" y="-10" as="targetPoint" />
          </mxGeometry>
        </mxCell>
        <mxCell id="fP1cCntkiwPbsJFRUNOq-16" value="Is exist any character" style="shape=hexagon;perimeter=hexagonPerimeter2;whiteSpace=wrap;html=1;fixedSize=1;" vertex="1" parent="1">
          <mxGeometry x="420" y="240" width="140" height="40" as="geometry" />
        </mxCell>
        <mxCell id="fP1cCntkiwPbsJFRUNOq-19" value="" style="rounded=0;whiteSpace=wrap;html=1;" vertex="1" parent="1">
          <mxGeometry x="350" y="-450" width="280" height="440" as="geometry" />
        </mxCell>
        <mxCell id="fP1cCntkiwPbsJFRUNOq-28" value="&lt;font style=&quot;font-size: 14px&quot;&gt;Characters&lt;/font&gt;" style="text;html=1;strokeColor=none;fillColor=none;align=center;verticalAlign=middle;whiteSpace=wrap;rounded=0;" vertex="1" parent="1">
          <mxGeometry x="374" y="-430" width="226" height="30" as="geometry" />
        </mxCell>
        <mxCell id="fP1cCntkiwPbsJFRUNOq-29" value="" style="rounded=0;whiteSpace=wrap;html=1;" vertex="1" parent="1">
          <mxGeometry x="370" y="-390" width="240" height="300" as="geometry" />
        </mxCell>
        <mxCell id="fP1cCntkiwPbsJFRUNOq-31" value="back" style="rounded=1;whiteSpace=wrap;html=1;" vertex="1" parent="1">
          <mxGeometry x="372" y="-70" width="230" height="40" as="geometry" />
        </mxCell>
      </root>
    </mxGraphModel>
  </diagram>
</mxfile>
